# xmcd CD database file
#
# Track frame offsets:
#	150
#	18332
#	40967
#	67847
#	83275
#	99157
#	120435
#	139592
#	160162
#	182830
#
# Disc length: 2669 seconds
#
# Revision: 5
# Processed by: cddbd v1.5PL3 Copyright (c) Steve Scherf et al.
# Submitted via: CDex 1.50
#
DISCID=6a0a6b0a
DTITLE=KAN - MAN
DYEAR=1996
DGENRE=JPop
TTITLE0=涙の夕焼け
TTITLE1=8 days A week
TTITLE2=MAN
TTITLE3=夏は二の腕発情期
TTITLE4=今度君に会ったら
TTITLE5=DISCO 80’S
TTITLE6=ひざまくら
TTITLE7=Autumn Song
TTITLE8=Mr. Moonlight
TTITLE9=指輪
EXTD=YEAR: 1996
EXTT0=
EXTT1=
EXTT2=
EXTT3=
EXTT4=
EXTT5=
EXTT6=
EXTT7=
EXTT8=
EXTT9=
PLAYORDER=
